<?xml version="1.0" encoding="UTF-8" standalone="no"?>
<!-- skis -->

<svg
   xmlns:dc="http://purl.org/dc/elements/1.1/"
   xmlns:cc="http://creativecommons.org/ns#"
   xmlns:rdf="http://www.w3.org/1999/02/22-rdf-syntax-ns#"
   xmlns:svg="http://www.w3.org/2000/svg"
   xmlns="http://www.w3.org/2000/svg"
   xmlns:sodipodi="http://sodipodi.sourceforge.net/DTD/sodipodi-0.dtd"
   xmlns:inkscape="http://www.inkscape.org/namespaces/inkscape"
   version="1.1"
   x="0px"
   y="0px"
   viewBox="0 0 100 125"
   enable-background="new 0 0 100 100"
   xml:space="preserve"
   id="svg3578"
   inkscape:version="0.91 r13725"
   sodipodi:docname="skis_icon.svg"
   inkscape:export-filename="/Users/jaymcdaniel/localhost/powder-report/powder-report/images/stock/skis_icon.png"
   inkscape:export-xdpi="153.38629"
   inkscape:export-ydpi="153.38629"><metadata
     id="metadata3592"><rdf:RDF><cc:Work
         rdf:about=""><dc:format>image/svg+xml</dc:format><dc:type
           rdf:resource="http://purl.org/dc/dcmitype/StillImage" /></cc:Work></rdf:RDF></metadata><defs
     id="defs3590" /><sodipodi:namedview
     pagecolor="#ffffff"
     bordercolor="#666666"
     borderopacity="1"
     objecttolerance="10"
     gridtolerance="10"
     guidetolerance="10"
     inkscape:pageopacity="0"
     inkscape:pageshadow="2"
     inkscape:window-width="1440"
     inkscape:window-height="851"
     id="namedview3588"
     showgrid="false"
     inkscape:zoom="5.2"
     inkscape:cx="18.365385"
     inkscape:cy="62.5"
     inkscape:window-x="0"
     inkscape:window-y="1"
     inkscape:window-maximized="1"
     inkscape:current-layer="svg3578" /><path
     d="m 49.095121,77.762078 c 0,0 -13.669156,42.534132 -13.74162,43.631592 -0.140097,1.95179 0.828507,2.67326 7.980719,3.16086 5.555586,0.38 7.263325,-0.18202 8.24159,-1.93452 0.975852,-1.75248 10.070103,-44.1099 10.070103,-44.1099 l 5.16911,-17.974002 c 0,0 1.335756,0.204613 1.835758,-0.57132 0.364737,-0.567334 -0.6715,-3.81456 -0.6715,-3.81456 0,0 11.280253,-33.645449 12.265766,-36.648202 0.99759,-3.004081 3.76572,-11.2244489 4.067654,-12.3431744 C 84.660529,5.8195707 83.81753,1.0164946 76.228117,0.49566299 68.08073,-0.06502799 64.988926,4.4988909 64.604866,5.9205482 64.228052,7.3435338 55.104815,55.169684 55.104815,55.169684 c 0,0 -2.770547,3.19275 -2.65702,3.797287 0.115942,0.536775 1.272955,0.665654 1.272955,0.665654 l -4.625629,18.129453 z"
     id="path3580"
     inkscape:connector-curvature="0"
     style="fill:#337ab7;fill-opacity:1" /><path
     d="m 46.164781,79.725826 c 0,0 17.971111,42.184684 18.705415,43.227684 1.289862,1.84417 2.748807,2.33444 9.925174,1.47879 5.584571,-0.6683 6.799554,-1.50802 6.456557,-3.32163 C 80.91376,119.29308 58.686588,78.114171 58.686588,78.114171 l -8.181203,-17.7189 c 0,0 1.596626,-0.111608 1.502423,-0.927399 -0.06038,-0.593907 -3.579729,-3.378761 -3.579729,-3.378761 0,0 -13.780268,-33.45811 -15.02182,-36.442261 C 32.164707,16.665356 28.80237,8.4848459 28.275796,7.3873801 27.633281,6.0720145 23.321663,1.7472531 15.696019,2.6573795 7.5148161,3.6392532 7.8916289,8.4622592 8.5582994,9.8586721 9.2370471,11.260399 35.415931,57.545313 35.415931,57.545313 c 0,0 -1.120778,3.40002 -0.115941,4.136093 0.905801,0.664326 2.055567,0.286989 2.055567,0.286989 l 8.809225,17.757431 z"
     id="path3582"
     inkscape:connector-curvature="0"
     style="fill:#337ab7;fill-opacity:1" /></svg>