<?xml version="1.0" encoding="UTF-8" standalone="no"?>
<!-- skis -->

<svg
   xmlns:dc="http://purl.org/dc/elements/1.1/"
   xmlns:cc="http://creativecommons.org/ns#"
   xmlns:rdf="http://www.w3.org/1999/02/22-rdf-syntax-ns#"
   xmlns:svg="http://www.w3.org/2000/svg"
   xmlns="http://www.w3.org/2000/svg"
   xmlns:sodipodi="http://sodipodi.sourceforge.net/DTD/sodipodi-0.dtd"
   xmlns:inkscape="http://www.inkscape.org/namespaces/inkscape"
   version="1.1"
   x="0px"
   y="0px"
   viewBox="0 0 100 125"
   enable-background="new 0 0 100 100"
   xml:space="preserve"
   id="svg3578"
   inkscape:version="0.91 r13725"
   sodipodi:docname="skis_icon.svg"><metadata
     id="metadata3592"><rdf:RDF><cc:Work
         rdf:about=""><dc:format>image/svg+xml</dc:format><dc:type
           rdf:resource="http://purl.org/dc/dcmitype/StillImage" /></cc:Work></rdf:RDF></metadata><defs
     id="defs3590" /><sodipodi:namedview
     pagecolor="#ffffff"
     bordercolor="#666666"
     borderopacity="1"
     objecttolerance="10"
     gridtolerance="10"
     guidetolerance="10"
     inkscape:pageopacity="0"
     inkscape:pageshadow="2"
     inkscape:window-width="1440"
     inkscape:window-height="851"
     id="namedview3588"
     showgrid="false"
     inkscape:zoom="5.2"
     inkscape:cx="21.923077"
     inkscape:cy="62.5"
     inkscape:window-x="0"
     inkscape:window-y="1"
     inkscape:window-maximized="1"
     inkscape:current-layer="svg3578" /><path
     d="m 49.095121,74.176299 c 0,0 -13.669156,40.561421 -13.74162,41.607981 -0.140097,1.86127 0.828507,2.54927 7.980719,3.01426 5.555586,0.36238 7.263325,-0.17358 8.24159,-1.8448 0.975852,-1.6712 10.070103,-42.064103 10.070103,-42.064103 l 5.16911,-17.140376 c 0,0 1.335756,0.195123 1.835758,-0.544823 0.364737,-0.541021 -0.6715,-3.637642 -0.6715,-3.637642 0,0 11.280253,-32.08499 12.265766,-34.948477 0.99759,-2.864753 3.76572,-10.7038645 4.067654,-11.770704 C 84.660529,5.5704493 83.81753,0.99013741 76.228117,0.49346176 68.08073,-0.04122465 64.988926,4.3110219 64.604866,5.6667435 64.228052,7.0237317 55.104815,52.631729 55.104815,52.631729 c 0,0 -2.770547,3.044672 -2.65702,3.62117 0.115942,0.51188 1.272955,0.634782 1.272955,0.634782 l -4.625629,17.288618 z"
     id="path3580"
     inkscape:connector-curvature="0"
     style="fill:#633737;fill-opacity:1" /><path
     d="m 46.164781,76.048969 c 0,0 17.971111,40.228181 18.705415,41.222801 1.289862,1.75864 2.748807,2.22617 9.925174,1.41021 5.584571,-0.63731 6.799554,-1.43808 6.456557,-3.16758 C 80.91376,113.78111 58.686588,74.512062 58.686588,74.512062 L 50.505385,57.614956 c 0,0 1.596626,-0.106432 1.502423,-0.884387 -0.06038,-0.566362 -3.579729,-3.222056 -3.579729,-3.222056 0,0 -13.780268,-31.906339 -15.02182,-34.752087 C 32.164707,15.913212 28.80237,8.1121103 28.275796,7.0655444 27.633281,5.8111848 23.321663,1.6870037 15.696019,2.5549189 7.5148161,3.4912538 7.8916289,8.0905712 8.5582994,9.4222191 9.2370471,10.758935 35.415931,54.897177 35.415931,54.897177 c 0,0 -1.120778,3.242329 -0.115941,3.944263 0.905801,0.633515 2.055567,0.273679 2.055567,0.273679 l 8.809225,16.93385 z"
     id="path3582"
     inkscape:connector-curvature="0"
     style="fill:#633737;fill-opacity:1" /></svg>